<svg height="64" viewBox="0 0 59 64" width="59" xmlns="http://www.w3.org/2000/svg"><g fill="none" transform=""><path d="m58.146 9.66037736c-.8772-5.38807547-13.4088-9.66037736-28.746-9.66037736s-27.8688 4.27230189-28.746 9.66037736h-.054v.60377354 13.8867925.6037736.6037736 13.2830188.6037736.6037736 14.490566h.054c.8772 5.386868 13.41 9.6603774 28.746 9.6603774s27.8688-4.2735094 28.746-9.6603774h.054v-14.490566-.6037736-.6037736-13.2830188-.6037736-.6037736-13.8867925-.60377354z" fill="#424a60"/><g fill="#424a60" transform="translate(0 38.641509)"><path d="m29.4 10.8679245c-15.906 0-28.8-4.5959245-28.8-10.26415091v15.09433961h.054c.8772 5.3868679 13.41 9.6603774 28.746 9.6603774s27.8688-4.2735095 28.746-9.6603774h.054v-15.09433961c0 5.66822641-12.894 10.26415091-28.8 10.26415091z"/><path d="m.6 0v.60377359c0-.20286793.0216-.40332076.054-.60377359z"/><path d="m58.146 0c.0324.20045283.054.40090566.054.60377359v-.60377359z"/></g><g fill="#556080" transform="translate(0 24.150943)"><path d="m29.4 10.8679245c-15.906 0-28.8-4.5959245-28.8-10.26415091v15.09433961h.054c.8772 5.3868679 13.41 9.6603774 28.746 9.6603774s27.8688-4.2735095 28.746-9.6603774h.054v-15.09433961c0 5.66822641-12.894 10.26415091-28.8 10.26415091z"/><path d="m.6 0v.60377359c0-.20286793.0216-.40332076.054-.60377359z"/><path d="m58.146 0c.0324.20045283.054.40090566.054.60377359v-.60377359z"/></g><ellipse cx="29.4" cy="10.264151" fill="#7fabda" rx="28.8" ry="10.264151"/><g fill="#7383bf" transform="translate(0 9.660377)"><path d="m29.4 10.8679245c-15.906 0-28.8-4.5959245-28.8-10.26415091v15.09433961h.054c.8772 5.3868679 13.41 9.6603774 28.746 9.6603774s27.8688-4.2735095 28.746-9.6603774h.054v-15.09433961c0 5.66822641-12.894 10.26415091-28.8 10.26415091z"/><path d="m.6 0v.60377359c0-.20286793.0216-.40332076.054-.60377359z"/><path d="m58.146 0c.0324.20045283.054.40090566.054.60377359v-.60377359z"/></g></g></svg>