<svg height="110" viewBox="0 0 80 110" width="80" xmlns="http://www.w3.org/2000/svg"><g fill="#4a4a4a" transform=""><path d="m.92917927 25.4720086 1.3112095 32.5374298c1.02017279 28.3833262 38.36766743 51.9824836 38.36766743 51.9824836s37.1857019-23.5979695 38.0217494-51.9824836l.2161987-8.5103887c-9.7058963-4.4940821-26.087581-6.0293305-38.4109071-6.0347948v18.7743628c3.4119006.0710367 9.0055076.0917063 11.7089417.6782937 3.5922246.7792657 3.2230237 2.6506912 3.1555507 3.3572571-.7502807 7.8777105-10.4298056 14.21946-14.6846436 16.7888985-4.3014039-2.8652268-16.9257451-12.353499-17.1861339-25.1146869l-.5005832-17.2852052c5.4125702-1.0931101 11.280108-1.6875378 17.413499-1.6875378 16.7278401 0 29.6674514 2.4751188 38.269784 5.9257452l.3820302.1546652.7146436-19.5840389c-9.4400432-4.5606047-26.3213606-6.8551619-39.421339-6.8551619-13.1605616 0-30.0411664 2.2945572-39.35766743 6.8551619"/><path d="m79.6190929 21.2749028c-2.4366307-6.3840389-3.7499784-9.7614903-6.4127862-16.2149028-.0558315-.13565875-.1708207-.23948164-.3114687-.28082073-1.8424406-.5400216-2.9022894-.82535638-4.8036501-1.2900648-.0962203-.02399568-.2549244.0487041-.30054.1375594-2.562311 5.03291576-3.9067818 7.69833693-6.474082 12.84196543-.0881426.1767603-.0047516.34473.1895896.3808423 1.7654644.3242981 2.7801728.5331318 4.572959.9420087.1023974.0239957.2582505-.0541685.3019654-.150864l.8795249-1.9764362c2.6129157.6222246 3.9326781.9766954 6.6432397 1.8992224l.9595896 2.4107344c.0515551.1294816.1596545.2287905.2926998.2701296 1.613175.5022462 2.5815551.8251187 4.1251188 1.3760691.2660907.0950324.4388121-.0810151.3378402-.3454428zm-11.303391-8.0212095 2.2565443-5.26788336 2.2216199 6.47265656c-1.7830454-.5179265-2.6801512-.7585961-4.4781642-1.2047732z"/><path d="m15.1120518 9.39989201c-1.937473.4174298-3.0460259.68280779-4.9625918 1.19004319-.17414683.0463283-.24993516.2109719-.0981209.5248164.1178402.2594385.2335421.6022678.2335421.9481858v3.1244276l-1.37250539.3665875c-2.7587905.7578834-3.6250108-.8647948-3.6250108-2.8193737 0-2.6442764 1.16580994-4.26196541 3.64758099-4.94358528l1.3499352-.36159827c1.9804752-.51317495 3.0082505-.75883369 4.9378834-1.17365011.1004967-.02138229.2100216-.15727862.2100216-.26015119l.0007127-2.97213823c0-.18412527-.1418358-.29887689-.3214471-.26038877-3.1199136.67164147-4.7730021 1.09287257-7.95112307 2.01848813-4.94904968 1.44235421-6.92406048 6.08991362-6.92406048 9.44859612 0 3.4252052 2.20095032 6.6634341 7.84231102 5.0687905 2.85358533-.8068251 4.32444923-1.173175 7.14453563-1.7794817.1002592-.0216198.2104968-.1575162.2104968-.2603887v-7.5990281c0-.18388769-.1425486-.29840173-.3221599-.26015119"/><path d="m27.3158747.7799784c-2.921771.31788337-4.4156803.52647948-7.2462203 1.01779698-.1080993.01829373-.2211879.152527-.2211879.26205183v14.24060479c0 .1753347.1389849.291987.3117063.2622894 3.1465227-.5447732 4.8307343-.772851 8.0993736-1.1023758 5.0839957-.5112743 7.1792225-4.3372786 7.1792225-7.69643631 0-3.42520519-2.3404104-7.61352052-8.1228942-6.98393089zm-.8761987 11.3677754-1.3779697.1677322.0007127-7.75868254 1.3998272-.1712959c2.8219871-.32857451 3.7269331 1.55449244 3.7269331 3.50645788 0 2.64427646-1.2095249 3.96023756-3.7495033 4.25578836z"/><path d="m63.8959827 6.24339093c.1788985.0375378.3207344-.07745141.3207344-.26015119v-3.16172786c0-.10334773-.1095249-.23948164-.2112095-.26062635-5.5237581-1.15678186-8.4319871-1.58038877-14.0075378-2.047473-.1579914-.0125918-.2877106.10762419-.2877106.26537797v3.16956803c0 .12591793.1178402.25444925.2435205.26514039 1.710108.14349892 2.6423758.24257019 4.4235205.46114471v10.83987037c0 .1183154.1149892.2496977.233067.2644277 1.8355507.227365 2.8683153.3751404 4.6732181.6773434.1727214.0292225.3109935-.0876674.3109935-.262527l-.0007127-10.75909287c1.7431317.29460043 2.6656587.46684665 4.3021166.8087257"/><path d="m53.0532613 15.1914039c-2.5727645-5.87371492-3.9374298-8.93827215-6.550108-14.73287258-.0579697-.12948164-.189352-.20028078-.3349892-.20812095-1.9655075-.10548596-3.0598056-.13898488-5.0386177-.15537797-.0966954-.00047516-.229028.03421166-.3026781.19291576-2.6169547 5.6337581-3.9837581 8.61492441-6.5707776 14.33611234-.0976458.2161987.0190065.387257.2561123.3753779 1.748121-.0852915 2.7758964-.1126133 4.5995681-.1254427.0731749-.0004752.2161987-.0969331.2442332-.1648812l.9584017-2.2489417c2.6796761.0059395 4.0231966.0479913 6.7556156.24946l.9075594 2.2781642c.0247084.0608207.1636933.1617926.2283153.1663067 1.8182074.1252052 2.8431318.2161987 4.5734342.4084017.2458963.0275594.3722894-.1444492.2739308-.3711015zm-11.6977753-5.38596114 2.3111879-5.80149028 2.2855291 5.94403888c-1.8372138-.09265659-2.7566522-.12187905-4.596717-.1425486z"/></g></svg>