<svg height="64" viewBox="0 0 56 64" width="56" xmlns="http://www.w3.org/2000/svg"><path d="m.04951579 2.11450115 4.1524 53.03525515c.06233684.7963954.60229474 1.4755311 1.36507368 1.7169655l21.85002103 6.9161196c.3864.122262.8012421.122262 1.1876421 0l21.8500211-6.9161196c.7627789-.2414344 1.3027368-.9205701 1.3650737-1.7169655l4.1524-53.03525515c.0893052-1.14022989-.8133263-2.11450115-1.9588211-2.11450115h-52.00484209c-1.14549474 0-2.04812632.97427126-1.95896842 2.11450115zm45.27408421 16.45506205h-27.062l.8167158 7.5188966h25.6566947l-1.6783789 21.4352919-15.0457263 4.7623357-15.0457264-4.7623357-.8768421-11.1986758h7.897179v5.4931126l8.236421 2.2068966 8.1872-2.2068966.6351579-8.7544644h-25.2113473l-1.6738106-21.3790896h35.7033895z" fill="#fc490b" transform=""/></svg>