<svg height="64" viewBox="0 0 64 64" width="64" xmlns="http://www.w3.org/2000/svg"><g fill="none" transform=""><path d="m50.2449231 64h-36.4898462c-7.59753844 0-13.7550769-6.1575385-13.7550769-13.7550769v-36.4898462c0-7.59753844 6.15753846-13.7550769 13.7550769-13.7550769h36.4910769c7.5963077 0 13.7538462 6.15753846 13.7538462 13.7550769v36.4910769c0 7.5963077-6.1575385 13.7538462-13.7550769 13.7538462z" fill="#393687"/><g fill="#89d3ff" transform="translate(11.076923 13.538462)"><path d="m3.88923077 34.4615385h-3.54461538v-34.4615385h11.86461541c3.216 0 5.6036923 1.00061538 7.1630769 3.00307692 1.5581538 2.00123077 2.3384615 4.62769231 2.3384615 7.87569228 0 1.1495385-.0332307 2.1415385-.0984615 2.9784616-.0664615.8381538-.2707692 1.888-.6153846 3.152-.3446154 1.2627692-.8123077 2.2966154-1.4030769 3.1015384-.5907693.8049231-1.4929231 1.5101539-2.7076924 2.1169231-1.2147692.608-2.6584615.9107692-4.3323076.9107692h-8.66461543zm0-14.7692308h8.22153843c1.1815385 0 2.1821539-.2301539 3.003077-.6892308.8196923-.4603077 1.4190769-.9513846 1.796923-1.4769231.3766154-.5255384.672-1.28.8861539-2.2646153.2129231-.9858462.3286154-1.723077.3446154-2.2166154.016-.4910769.0246153-1.1975385.0246153-2.1169231 0-4.98830769-2.084923-7.48307692-6.2523076-7.48307692h-8.02461543z"/><path d="m25.2061538 28.2092308 3.4461539-.1476923c.1304615 1.2147692.7384615 2.1587692 1.8215385 2.8307692 1.0830769.6732308 2.3298461 1.0092308 3.7415384 1.0092308s2.6338462-.32 3.6676923-.96c1.0338462-.64 1.5507693-1.5581539 1.5507693-2.7556923 0-1.1975385-.443077-2.1501539-1.3292308-2.8553847-.8861539-.7052307-1.9692308-1.2627692-3.2492308-1.6738461-1.28-.4098462-2.5673846-.8443077-3.8646154-1.3046154-1.2972307-.4590769-2.436923-1.1815385-3.4215384-2.1661538-1.2147693-1.1495385-1.8215385-2.5513847-1.8215385-4.2092308 0-1.6578462.6646154-3.2012308 1.9938462-4.6289231 1.3292307-1.4276923 3.4867692-2.14030768 6.4738461-2.14030768 1.0510769 0 2.0344616.12307692 2.9538462.36923076.9181538.24615385 1.5753846.48492312 1.9692307.71384612l.5907693.3433847-1.1323077 3.1027692c-1.0510769-.8196923-2.4295385-1.2307692-4.1353846-1.2307692-1.707077 0-2.9784616.32-3.8153847.96-.836923.64-1.2553846 1.4523076-1.2553846 2.4356923 0 1.0830769.5243077 1.9372307 1.5753846 2.56 1.0498462.624 2.2313847 1.1495384 3.5446154 1.5753846 1.312.4270769 2.6166154.9021538 3.9138462 1.4276923 1.296.5255384 2.3950769 1.3464615 3.2984615 2.4615384.9033846 1.115077 1.3538462 2.592 1.3538462 4.4307693 0 1.8387692-.7384616 3.4387692-2.2153846 4.8-1.4769231 1.3612307-3.6356923 2.0430769-6.4738462 2.0430769-2.8393846 0-5.0633846-.6732308-6.6707692-2.0184615-1.6086154-1.3452308-2.4455385-3.003077-2.5107693-4.9723077z"/></g></g></svg>