<svg height="64" viewBox="0 0 51 64" width="51" xmlns="http://www.w3.org/2000/svg"><g fill="none" transform=""><path d="m39.2179961 1.50470219h-37.5430276v60.82768651h47.687811v-50.6910094z" fill="#e8e8e8"/><g transform="translate(13.251969 14.846395)"><path d="m12.1171181.18257053c-3.04996062 0-5.06425983 1.26535423-5.06425983 2.47272728v3.85123511h5.06425983v.57499686h-9.49403149c-1.20874015 0-2.47450393 2.01248903-2.47450393 5.06021312 0 3.0477242 1.26596456 5.0602132 2.47450393 5.0602132h3.8537126v-2.406721c0-1.6222696 1.32077953-2.9421943 2.94454725-2.9421943l5.39074014-.0004013c1.3061221 0 2.3688898-1.0619185 2.3688898-2.36719749v-4.16060188h.0004016v-2.66954232c-.0002008-1.20737305-2.0142993-2.47272728-5.0642599-2.47272728z" fill="#004a94"/><ellipse cx="9.372555" cy="3.593028" fill="#fff" rx="1" ry="1"/></g><g transform="translate(20.279528 21.868339)"><path d="m14.5835906.05978683h-3.8547166v2.4037116c0 1.6222696-1.32077951 2.94199373-2.94434644 2.94199373l-5.39094095.00060188c-1.30612204 0-2.36868897 1.0619185-2.36868897 2.3671975v2.65509716l.00040157-.0006019v4.1784577c0 1.2075737 2.01409843 2.4727273 5.06425985 2.4727273 3.05016141 0 5.06425984-1.2653542 5.06425984-2.4727273v-3.8512351h-5.06425984v-.5749969h9.49403154c1.2087401 0 2.4745039-2.01248899 2.4745039-5.06021313 0-3.04772413-1.2659646-5.06001254-2.4745039-5.06001254z" fill="#fb9200"/><ellipse cx="7.834122" cy="13.668715" fill="#fff" rx="1" ry="1"/></g><path d="m40.7879528 6.57314107h-39.1129843v-5.06843888h37.5430276z" fill="#004a94"/><path d="m39.2179961 11.6413793h10.1447834l-10.1447834-10.13667711z" fill="#d1d3d3"/><path d="m50.4275551 10.5776552-10.1445827-10.13687777c-.2825078-.28228213-.6654094-.44077743-1.0649763-.44077743h-37.5430276c-.8318622 0-1.50590551.67370533-1.50590551 1.50470219v60.82768651c0 .8311975.67404331 1.5047022 1.50590551 1.5047022h47.687811c.8318622 0 1.5059055-.6735047 1.5059055-1.5047022v-50.6910094c0-.399047-.158622-.7816426-.4411299-1.0637241zm-9.7036535-5.44040128 5.0032204 4.99942318h-5.0032204zm-37.54302758-2.12784953h34.53121658v2.05903448h-34.53121658zm44.67599998 57.81828211h-44.67599998v-52.74984324h34.53121658v3.56373664c0 .8311975.6740433 1.5047022 1.5059055 1.5047022h8.6386771zm-18.2244685-10.4344075-1.6474606-3.5685517h-2.833311l3.1694291 5.9453793v3.6807022h2.622685v-3.759348l3.1694292-5.8665329h-2.8202599zm-5.8909016-2.7718621c-.6107952-.5310595-1.5245787-.7968903-2.7411496-.7968903h-3.3342756v9.6258809h2.6028071v-3.1931787h.7316693c1.1683819 0 2.0701181-.2931159 2.7050079-.8791473.634689-.5860313.9521339-1.416627.9521339-2.4919875-.0002008-.9786583-.3057993-1.7336175-.916193-2.2646771zm-2.0657008 3.186558c-.2307047.2196865-.5415236.3292289-.9326574.3292289h-.4744607v-2.2119123h.6722363c.7204252 0 1.0808385.3248151 1.0808385.9742446 0 .3862068-.1152519.6889529-.3459567.9084388z" fill="#333e48"/></g></svg>